<?xml version="1.0" standalone="no"?>
<svg xmlns="http://www.w3.org/2000/svg" viewBox="0 0 95 69" width="95" height="69"><g fill="#e11414" color="#e11414" transform="translate(25.148 0) scale(0.44) "><svg width="100.0" height="100.0" x="0.0" y="0.0" viewBox="0 0 100 100"><g><path d="M49.748,45.623c0.062,0,0.151,0,0.254,0.01c0.099-0.01,0.188-0.01,0.256-0.01H49.748z M93.319,61.671   c-3.679-1.569-7.854-4.049-12.666-5.348c-4.814-1.31-6.589-0.657-6.589-0.657s-2.28-5.607-8.357-7.176   c-5.769-1.485-13.817-2.735-15.705-2.857c-1.888,0.122-9.937,1.372-15.706,2.857c-6.077,1.568-8.357,7.176-8.357,7.176   s-1.774-0.652-6.588,0.657c-4.813,1.299-8.99,3.778-12.666,5.348c7.094,4.564,14.568,2.083,18.489-1.96   c-0.377,5.088-0.377,10.439,6.843,15.264c7.216,4.827,7.47,10.048,7.47,10.048s-2.407-0.52-2.407,3.265   c0,3.783,3.422,5.608,4.309,5.739l0.218,0.099c0.391,0.074,0.784,0.143,1.18,0.211c0.373,0.059,0.746,0.107,1.122,0.161   c-1.769-0.975-4.744-2.133-3.303-4.239c0.779-0.985,3.74,1.436,5.132,2.603c1.309,1.098,2.616,1.716,4.284,1.784   c1.646-0.078,2.945-0.697,4.24-1.784c1.396-1.167,4.354-3.588,5.137-2.603c1.44,2.106-1.535,3.265-3.31,4.235   c0.365-0.044,0.728-0.095,1.09-0.152c0.396-0.069,0.794-0.138,1.187-0.216l0.25-0.099c0.882-0.131,4.302-1.956,4.302-5.739   c0-3.784-2.406-3.265-2.406-3.265s0.256-5.221,7.471-10.048c7.221-4.824,7.221-10.176,6.843-15.264   C78.75,63.754,86.225,66.235,93.319,61.671z M31.714,57.892c0.735-0.338,1.489-0.481,2.214-0.481   c4.245,0.055,7.76,4.619,7.809,4.633c0.181,0.226,0.147,0.555-0.079,0.735c-0.097,0.079-0.215,0.113-0.328,0.113   c-0.151,0-0.304-0.064-0.407-0.195c0,0-0.205-0.256-0.588-0.663c-1.132-1.221-3.823-3.607-6.407-3.577   c-0.592,0-1.185,0.112-1.773,0.387c-0.26,0.117-0.574,0.004-0.696-0.256C31.342,58.323,31.455,58.019,31.714,57.892z    M39.743,67.671c-3.064,1.023-6.745-0.614-9.201-6.339c2.25,0,4.496,0.82,6.339,2.657c1.837,1.843,5.93,2.661,5.93,2.661   S42.811,66.65,39.743,67.671z M58.261,62.043c0.054-0.014,3.565-4.578,7.813-4.633c0.727,0,1.48,0.144,2.211,0.481   c0.265,0.127,0.377,0.432,0.254,0.695c-0.121,0.26-0.431,0.373-0.69,0.256c-0.593-0.274-1.187-0.387-1.774-0.387   c-2.587-0.03-5.277,2.356-6.412,3.577c-0.381,0.407-0.582,0.663-0.582,0.663c-0.108,0.131-0.26,0.195-0.413,0.195   c-0.112,0-0.229-0.034-0.322-0.113C58.119,62.598,58.079,62.269,58.261,62.043z M60.257,67.671   c-3.063-1.021-3.063-1.021-3.063-1.021s4.082-0.818,5.926-2.661c1.843-1.837,4.089-2.657,6.343-2.657   C67.007,67.057,63.324,68.694,60.257,67.671z"></path><g><g><path d="M74.677,54.278c-0.701-3.136-5.611-6.003-5.611-6.003s15.273,0.347,17.62-5.657c2.349-6.004-7.646-30.738-28.268-37.262     c15.753,3.255,28.514,14.7,33.63,29.685l0.119,0.357c1.221,4.177,2.087,10.27,0.694,13.225     c-1.303,2.784-2.582,4.479-14.704,5.741"></path></g><g><path d="M25.322,54.278c0.706-3.136,5.618-6.003,5.618-6.003s-15.274,0.347-17.627-5.657C10.97,36.613,20.96,11.88,41.58,5.355     C25.827,8.61,13.068,20.056,7.956,35.04l-0.123,0.357c-1.216,4.177-2.088,10.27-0.696,13.225     c1.308,2.784,2.588,4.479,14.705,5.741"></path></g></g></g></svg></g><path fill="#fe0b01" fill-rule="nonzero" d="M0.07 14.33L1.03 14.26Q1.25 11.81 1.25 7.76Q1.25 3.72 1.01 1.82L1.01 1.82L0.07 1.75Q0 1.46 0 1.01Q0 0.55 0.02 0.41L0.02 0.41Q1.56 0.38 2.76 0.19Q3.96 0 5.30 0L5.30 0Q7.73 0 8.99 1.12Q10.25 2.23 10.25 4.49Q10.25 6.74 8.71 7.90L8.71 7.90Q11.28 8.93 11.28 11.57L11.28 11.57Q11.28 13.80 9.89 14.94Q8.50 16.08 5.78 16.08L5.78 16.08Q4.27 16.08 2.98 15.89L2.98 15.89Q0.70 15.72 0.02 15.67L0.02 15.67Q0 15.53 0 15.10Q0 14.66 0.07 14.33L0.07 14.33ZM4.44 6.79L4.44 6.79Q4.97 7.15 5.99 7.15Q7.01 7.15 7.58 6.47Q8.16 5.78 8.16 4.40Q8.16 3.02 7.39 2.20Q6.62 1.37 5.21 1.37L5.21 1.37Q4.32 1.37 3.24 1.80L3.24 1.80Q3.05 3.79 3.05 7.61Q3.05 11.42 3.24 13.87L3.24 13.87Q4.66 14.42 5.81 14.42L5.81 14.42Q9.19 14.42 9.19 11.57L9.19 11.57Q9.19 9.17 6.96 8.64L6.96 8.64Q6.24 8.76 5.56 8.76Q4.87 8.76 3.94 8.40L3.94 8.40Q3.94 7.30 4.44 6.79ZM23.83 9.10L23.83 9.10Q23.83 3.91 23.59 1.70L23.59 1.70L22.75 1.63Q22.70 1.25 22.70 0.97Q22.70 0.70 22.78 0.29L22.78 0.29Q23.54 0.31 24.55 0.31Q25.56 0.31 26.30 0.29L26.30 0.29Q26.38 0.65 26.38 0.92Q26.38 1.20 26.33 1.63L26.33 1.63L25.54 1.70Q25.34 4.06 25.34 7.28Q25.34 10.51 25.25 11.48Q25.15 12.46 24.83 13.39Q24.50 14.33 23.93 14.88L23.93 14.88Q22.68 16.08 20.04 16.08L20.04 16.08Q16.66 16.08 15.60 14.18L15.60 14.18Q15.07 13.18 14.89 12.02Q14.71 10.87 14.71 7.39Q14.71 3.91 14.47 1.70L14.47 1.70L13.61 1.63Q13.56 1.25 13.56 0.97Q13.56 0.70 13.63 0.29L13.63 0.29Q14.47 0.31 15.58 0.31Q16.68 0.31 17.50 0.29L17.50 0.29Q17.57 0.65 17.57 0.92Q17.57 1.20 17.52 1.63L17.52 1.63L16.70 1.70Q16.51 4.06 16.51 9.10L16.51 9.10Q16.51 11.78 17.26 13.04Q18 14.30 20.21 14.30Q22.42 14.30 23.12 13.04Q23.83 11.78 23.83 9.10ZM29.30 14.40L30.14 14.33Q30.36 11.02 30.36 7.34Q30.36 3.67 30.14 1.70L30.14 1.70L29.33 1.63Q29.28 1.25 29.28 0.97Q29.28 0.70 29.35 0.29L29.35 0.29Q30.19 0.31 31.30 0.31Q32.40 0.31 33.22 0.29L33.22 0.29Q33.29 0.65 33.29 0.92Q33.29 1.20 33.24 1.63L33.24 1.63L32.33 1.70Q32.16 3.96 32.16 7.91Q32.16 11.86 32.33 13.90L32.33 13.90Q33.07 13.97 34.50 13.97Q35.93 13.97 36.67 13.85L36.67 13.85L36.74 12.22Q37.15 12.14 37.48 12.14Q37.80 12.14 38.09 12.17L38.09 12.17Q38.16 13.99 38.30 15.72L38.30 15.72L38.18 15.84Q37.06 15.72 33.60 15.72Q30.14 15.72 29.33 15.74L29.33 15.74Q29.26 15.38 29.26 15.11Q29.26 14.83 29.30 14.40L29.30 14.40ZM47.50 1.73L46.61 1.66Q46.56 1.13 46.56 0.94Q46.56 0.74 46.63 0.31L46.63 0.31Q47.21 0.34 48.64 0.34Q50.06 0.34 50.59 0.31L50.59 0.31Q50.66 0.67 50.66 0.85Q50.66 1.03 50.62 1.66L50.62 1.66L49.73 1.73L45.05 7.27Q47.47 10.97 48.26 12.10Q49.06 13.22 49.90 14.21L49.90 14.21L51.02 14.28Q51.07 14.66 51.07 15Q51.07 15.34 51 15.67L51 15.67L48.14 15.79Q47.98 15 45.14 10.82L45.14 10.82Q43.94 9.05 43.82 8.83L43.82 8.83L42.79 10.15Q42.84 12.60 42.98 14.33L42.98 14.33L43.85 14.40Q43.90 14.93 43.90 15.13Q43.90 15.34 43.82 15.74L43.82 15.74Q43.15 15.72 41.86 15.72Q40.56 15.72 39.96 15.74L39.96 15.74Q39.89 15.38 39.89 15.06Q39.89 14.74 39.94 14.40L39.94 14.40L40.78 14.33Q40.97 11.69 40.97 7.67Q40.97 3.65 40.75 1.70L40.75 1.70L39.94 1.63Q39.89 1.10 39.89 0.91Q39.89 0.72 39.96 0.29L39.96 0.29Q40.61 0.31 41.92 0.31Q43.22 0.31 43.82 0.29L43.82 0.29Q43.90 0.65 43.90 0.83Q43.90 1.01 43.85 1.63L43.85 1.63L42.94 1.70Q42.77 3.82 42.77 8.06L42.77 8.06Q46.58 3.19 47.50 1.73L47.50 1.73ZM63.22 14.50L63.22 14.50Q61.08 16.08 58.18 16.08Q55.27 16.08 53.84 14.11Q52.42 12.14 52.42 8.09L52.42 8.09Q52.42 0 58.44 0L58.44 0Q60.12 0 61.30 0.66Q62.47 1.32 62.98 2.54L62.98 2.54Q63.12 2.98 63.12 3.48L63.12 3.48Q63.12 4.92 61.87 4.92L61.87 4.92Q61.13 4.92 60.72 4.46Q60.31 4.01 60.31 3.29Q60.31 2.57 60.60 2.16L60.60 2.16Q59.83 1.42 58.44 1.42L58.44 1.42Q56.45 1.42 55.42 3.06Q54.38 4.70 54.38 7.90L54.38 7.90Q54.38 14.30 58.37 14.30L58.37 14.30Q60.31 14.30 61.66 13.20L61.66 13.20Q61.63 11.28 61.49 9.91L61.49 9.91Q58.61 10.01 57.62 10.18L57.62 10.18Q57.50 9.53 57.50 8.93Q57.50 8.33 57.53 8.11L57.53 8.11Q58.75 8.30 60.60 8.30Q62.45 8.30 63.46 8.23L63.46 8.23Q63.22 10.78 63.22 14.50ZM73.54 1.70L72.65 1.63Q72.60 1.25 72.60 0.97Q72.60 0.70 72.67 0.29L72.67 0.29Q73.44 0.31 74.58 0.31Q75.72 0.31 76.56 0.29L76.56 0.29Q76.63 0.70 76.63 1.04Q76.63 1.39 76.58 1.63L76.58 1.63L75.74 1.70Q72.46 8.78 71.86 11.06L71.86 11.06Q71.93 12.89 72.05 14.33L72.05 14.33L72.91 14.40Q72.96 14.78 72.96 15.06Q72.96 15.34 72.89 15.74L72.89 15.74Q72.05 15.72 70.94 15.72Q69.84 15.72 69.02 15.74L69.02 15.74Q68.95 15.38 68.95 15.11Q68.95 14.83 69 14.40L69 14.40L69.84 14.33Q69.98 12.24 70.01 11.02L70.01 11.02Q69.38 8.95 66.65 3.48L66.65 3.48Q65.88 1.99 65.74 1.70L65.74 1.70L64.85 1.63Q64.80 1.25 64.80 0.97Q64.80 0.70 64.87 0.29L64.87 0.29Q65.71 0.31 66.95 0.31Q68.18 0.31 69 0.29L69 0.29Q69.07 0.65 69.07 0.92Q69.07 1.20 69.02 1.63L69.02 1.63L68.16 1.70Q68.62 3.41 69.67 5.71Q70.73 8.02 71.02 8.69L71.02 8.69L71.11 8.69Q71.76 7.44 72.48 5.44Q73.20 3.43 73.54 1.70L73.54 1.70ZM93.82 0.41Q93.84 0.60 93.84 1.01Q93.84 1.42 93.77 1.75L93.77 1.75L92.86 1.82Q92.83 2.50 92.83 3.82L92.83 3.82Q92.83 9.70 93.36 14.33L93.36 14.33L94.25 14.40Q94.30 14.78 94.30 15.06Q94.30 15.34 94.22 15.74L94.22 15.74Q93.38 15.72 92.28 15.72Q91.18 15.72 90.36 15.74L90.36 15.74Q90.29 15.38 90.29 15.11Q90.29 14.83 90.34 14.40L90.34 14.40L91.13 14.33Q91.18 12.60 91.18 10.38Q91.18 8.16 90.96 4.20L90.96 4.20Q90.72 4.70 89.76 6.65L89.76 6.65Q87.62 10.90 86.83 12.91L86.83 12.91Q86.35 13.10 85.81 13.10Q85.27 13.10 85.08 13.08L85.08 13.08Q84.24 11.06 82.69 8.20Q81.14 5.33 80.86 4.80L80.86 4.80Q80.66 8.21 80.66 10.57Q80.66 12.94 80.71 14.33L80.71 14.33L81.60 14.40Q81.65 14.78 81.65 15.06Q81.65 15.34 81.58 15.74L81.58 15.74Q80.81 15.72 79.80 15.72Q78.79 15.72 78.05 15.74L78.05 15.74Q77.98 15.38 77.98 15.11Q77.98 14.83 78.02 14.40L78.02 14.40L78.86 14.33Q79.37 9.96 79.37 3.98L79.37 3.98Q79.37 2.83 79.30 1.82L79.30 1.82L78.41 1.75Q78.34 1.42 78.34 1.01Q78.34 0.60 78.36 0.41L78.36 0.41Q80.33 0.36 81.34 0.29L81.34 0.29Q81.74 2.50 86.18 10.68L86.18 10.68Q89.86 3.50 90.48 0.29L90.48 0.29Q91.37 0.36 93.82 0.41L93.82 0.41Z" transform="translate(0, 52)"></path></svg>